    <svg 
      width={width} 
      height={height} 
      viewBox="0 0 256 256" 
      xmlns="http://www.w3.org/2000/svg"
      shapeRendering="geometricPrecision"
      textRendering="geometricPrecision"
      style={{ 
        display: 'block', 
        imageRendering: 'optimizeQuality',
        transform: 'translateZ(0)'  // ะฒะบะปััะฐะตั ะฐะฟะฟะฐัะฐัะฝะพะต ััะบะพัะตะฝะธะต
      }}
    >
      <defs>
        <filter id="shadow" x="-20%" y="-20%" width="140%" height="140%">
          <feDropShadow dx="0" dy="4" stdDeviation="4" floodColor="#000" floodOpacity="0.25"/>
        </filter>
      </defs>
      
      {/* ะฃะฑัะฐะปะธ ะณัะฐะดะธะตะฝัะฝัะน ัะพะฝ, ัะตะฟะตัั ะพะฝ ะฟัะพะทัะฐัะฝัะน */}
      
      {/* ะกะตัะบะฐ ะธะท 9 ัะฐะทะฝะพัะฒะตัะฝัั ะบะฒะฐะดัะฐัะธะบะพะฒ ั ะผะตะฝััะธะผะธ ะพััััะฟะฐะผะธ ะพั ะบัะฐะตะฒ */}
      <g transform="translate(24,24)" filter="url(#shadow)">
        {/* ะะตััะฝะธะน ััะด */}
        <rect x="0" y="0" width="64" height="64" rx="8" fill="#ffcc00"/>
        <text x="32" y="40" fontSize="30" fill="#fff" textAnchor="middle">๐</text>
        <rect x="74" y="0" width="64" height="64" rx="8" fill="#ff6b6b"/>
        <text x="106" y="40" fontSize="30" fill="#fff" textAnchor="middle">๐ช</text>
        <rect x="148" y="0" width="64" height="64" rx="8" fill="#4ecdc4"/>
        {/* ะกัะตะดะฝะธะน ััะด */}
        <rect x="0" y="74" width="64" height="64" rx="8" fill="#1a535c"/>
        <text x="32" y="114" fontSize="30" fill="#fff" textAnchor="middle">๐ฆ</text>
        <rect x="74" y="74" width="64" height="64" rx="8" fill="#ffe66d"/>
        <rect x="148" y="74" width="64" height="64" rx="8" fill="#f7fff7"/>
        <text x="180" y="114" fontSize="30" fill="#000" textAnchor="middle">๐ท๏ธ</text>
        {/* ะะธะถะฝะธะน ััะด */}
        <rect x="0" y="148" width="64" height="64" rx="8" fill="#ff6b6b"/>
        <rect x="74" y="148" width="64" height="64" rx="8" fill="#4ecdc4"/>
        <text x="106" y="188" fontSize="30" fill="#fff" textAnchor="middle">๐</text>
        <rect x="148" y="148" width="64" height="64" rx="8" fill="#1a535c"/>
        <text x="180" y="188" fontSize="30" fill="#fff" textAnchor="middle">๐ฐ</text>
      </g>
    </svg>