<svg width="256" height="256" viewBox="0 0 256 256" xmlns="http://www.w3.org/2000/svg">
  <!-- ะคะพะฝ ั ะณัะฐะดะธะตะฝัะพะผ -->
  <defs>
    <linearGradient id="gradBg" x1="0" y1="0" x2="1" y2="1">
      <stop offset="0%" stop-color="#ff7eb3"/>
      <stop offset="100%" stop-color="#ff758c"/>
    </linearGradient>
    <filter id="shadow" x="-20%" y="-20%" width="140%" height="140%">
      <feDropShadow dx="0" dy="4" stdDeviation="4" flood-color="#000" flood-opacity="0.25"/>
    </filter>
  </defs>
  <!-- ะะบััะณะปัะน ัะพะฝ -->
  <rect x="0" y="0" width="256" height="256" rx="32" fill="url(#gradBg)"/>
  <!-- ะกะตัะบะฐ ะธะท 9 ัะฐะทะฝะพัะฒะตัะฝัั ะบะฒะฐะดัะฐัะธะบะพะฒ -->
  <g transform="translate(48,48)" filter="url(#shadow)">
    <!-- ะะตััะฝะธะน ััะด -->
    <rect x="0" y="0" width="48" height="48" rx="8" fill="#ffcc00"/>
    <text x="24" y="32" font-size="24" fill="#fff" text-anchor="middle">๐</text>
    <rect x="56" y="0" width="48" height="48" rx="8" fill="#ff6b6b"/>
    <text x="80" y="32" font-size="24" fill="#fff" text-anchor="middle">๐ช</text>
    <rect x="112" y="0" width="48" height="48" rx="8" fill="#4ecdc4"/>
    <!-- ะกัะตะดะฝะธะน ััะด -->
    <rect x="0" y="56" width="48" height="48" rx="8" fill="#1a535c"/>
    <text x="24" y="88" font-size="24" fill="#fff" text-anchor="middle">๐ฆ</text>
    <rect x="56" y="56" width="48" height="48" rx="8" fill="#ffe66d"/>
    <rect x="112" y="56" width="48" height="48" rx="8" fill="#f7fff7"/>
    <text x="136" y="88" font-size="24" fill="#000" text-anchor="middle">๐ท๏ธ</text>
    <!-- ะะธะถะฝะธะน ััะด -->
    <rect x="0" y="112" width="48" height="48" rx="8" fill="#ff6b6b"/>
    <rect x="56" y="112" width="48" height="48" rx="8" fill="#4ecdc4"/>
    <text x="80" y="144" font-size="24" fill="#fff" text-anchor="middle">๐</text>
    <rect x="112" y="112" width="48" height="48" rx="8" fill="#1a535c"/>
    <text x="136" y="144" font-size="24" fill="#fff" text-anchor="middle">๐ฐ</text>
  </g>
  <!-- ะขะตะบัั "Sve tu" ะฒะฝะธะทั -->
  <text x="128" y="240" text-anchor="middle" font-family="sans-serif" font-size="24" fill="#ffffff" font-weight="bold">
    Sve tu
  </text>
</svg>